<svg width="224" height="186" viewBox="0 0 224 186" fill="none" xmlns="http://www.w3.org/2000/svg">
<g filter="url(#filter0_d_2_2)">
<mask id="path-1-outside-1_2_2" maskUnits="userSpaceOnUse" x="0" y="14" width="222" height="160" fill="black">
<rect fill="white" y="14" width="222" height="160"/>
<path d="M5.40723 75L14.7041 19H29.9072L26.1885 41.6406H26.9541L47.5166 19H65.2354L42.2666 43.9375L56.376 75H38.2197L29.251 54L23.0166 60.6719L20.6104 75H5.40723ZM72.2627 75.6563C69.6012 75.6563 67.3135 75.2188 65.3994 74.3437C63.5036 73.4505 62.1182 72.1016 61.2432 70.2969C60.3864 68.474 60.195 66.1771 60.6689 63.4062C61.0518 61.1094 61.7718 59.1497 62.8291 57.5273C63.8864 55.9049 65.1989 54.5742 66.7666 53.5352C68.3343 52.4961 70.0934 51.7031 72.0439 51.1562C74.0127 50.5911 76.0908 50.2266 78.2783 50.0625C80.6481 49.8802 82.5713 49.6523 84.0479 49.3789C85.5244 49.1055 86.6273 48.7318 87.3564 48.2578C88.0856 47.7839 88.5231 47.1458 88.6689 46.3437V46.2344C88.833 45.1406 88.5413 44.3021 87.7939 43.7188C87.0648 43.1354 86.0439 42.8437 84.7314 42.8437C83.3096 42.8437 82.0791 43.1536 81.04 43.7734C80.0192 44.3932 79.3174 45.3594 78.9346 46.6719H65.0439C65.6273 44.1198 66.8213 41.7682 68.626 39.6172C70.4489 37.4479 72.8643 35.7161 75.8721 34.4219C78.8981 33.1094 82.5075 32.4531 86.7002 32.4531C89.6898 32.4531 92.3148 32.8086 94.5752 33.5195C96.8356 34.2122 98.7041 35.1875 100.181 36.4453C101.675 37.6849 102.724 39.1432 103.325 40.8203C103.945 42.4792 104.091 44.2839 103.763 46.2344L98.9502 75H84.8408L85.8252 69.0937H85.4971C84.4033 70.6615 83.1729 71.9284 81.8057 72.8945C80.4567 73.8607 78.9801 74.5625 77.376 75C75.79 75.4375 74.0856 75.6563 72.2627 75.6563ZM78.8252 66.1406C79.9554 66.1406 81.0674 65.9036 82.1611 65.4297C83.2549 64.9557 84.1937 64.2721 84.9775 63.3789C85.7614 62.4857 86.2627 61.401 86.4814 60.125L87.0283 56.625C86.6273 56.7891 86.1807 56.944 85.6885 57.0898C85.2145 57.2174 84.7132 57.3451 84.1846 57.4727C83.6742 57.6003 83.1273 57.7187 82.5439 57.8281C81.9788 57.9375 81.3955 58.0469 80.7939 58.1562C79.5908 58.3385 78.5791 58.6393 77.7588 59.0586C76.9385 59.4596 76.3005 59.9609 75.8447 60.5625C75.389 61.1458 75.1064 61.8021 74.9971 62.5312C74.833 63.6797 75.0973 64.5729 75.79 65.2109C76.501 65.8307 77.5127 66.1406 78.8252 66.1406ZM113.6 75L110.1 33H125.193L125.74 58.5937H126.068L135.693 33H150.35L151.662 58.375H151.99L160.85 33H175.943L158.443 75H142.146L139.959 52.4687H139.521L129.896 75H113.6ZM185.131 75.6563C182.469 75.6563 180.182 75.2188 178.268 74.3437C176.372 73.4505 174.986 72.1016 174.111 70.2969C173.255 68.474 173.063 66.1771 173.537 63.4062C173.92 61.1094 174.64 59.1497 175.697 57.5273C176.755 55.9049 178.067 54.5742 179.635 53.5352C181.202 52.4961 182.962 51.7031 184.912 51.1562C186.881 50.5911 188.959 50.2266 191.146 50.0625C193.516 49.8802 195.439 49.6523 196.916 49.3789C198.393 49.1055 199.495 48.7318 200.225 48.2578C200.954 47.7839 201.391 47.1458 201.537 46.3437V46.2344C201.701 45.1406 201.41 44.3021 200.662 43.7188C199.933 43.1354 198.912 42.8437 197.6 42.8437C196.178 42.8437 194.947 43.1536 193.908 43.7734C192.887 44.3932 192.186 45.3594 191.803 46.6719H177.912C178.495 44.1198 179.689 41.7682 181.494 39.6172C183.317 37.4479 185.732 35.7161 188.74 34.4219C191.766 33.1094 195.376 32.4531 199.568 32.4531C202.558 32.4531 205.183 32.8086 207.443 33.5195C209.704 34.2122 211.572 35.1875 213.049 36.4453C214.544 37.6849 215.592 39.1432 216.193 40.8203C216.813 42.4792 216.959 44.2839 216.631 46.2344L211.818 75H197.709L198.693 69.0937H198.365C197.271 70.6615 196.041 71.9284 194.674 72.8945C193.325 73.8607 191.848 74.5625 190.244 75C188.658 75.4375 186.954 75.6563 185.131 75.6563ZM191.693 66.1406C192.824 66.1406 193.936 65.9036 195.029 65.4297C196.123 64.9557 197.062 64.2721 197.846 63.3789C198.63 62.4857 199.131 61.401 199.35 60.125L199.896 56.625C199.495 56.7891 199.049 56.944 198.557 57.0898C198.083 57.2174 197.581 57.3451 197.053 57.4727C196.542 57.6003 195.995 57.7187 195.412 57.8281C194.847 57.9375 194.264 58.0469 193.662 58.1562C192.459 58.3385 191.447 58.6393 190.627 59.0586C189.807 59.4596 189.169 59.9609 188.713 60.5625C188.257 61.1458 187.975 61.8021 187.865 62.5312C187.701 63.6797 187.965 64.5729 188.658 65.2109C189.369 65.8307 190.381 66.1406 191.693 66.1406ZM54.626 130.484C54.5531 129.518 54.3525 128.671 54.0244 127.941C53.6963 127.194 53.2314 126.565 52.6299 126.055C52.0283 125.526 51.2809 125.134 50.3877 124.879C49.5127 124.605 48.4827 124.469 47.2979 124.469C44.7458 124.469 42.4216 125.079 40.3252 126.301C38.2288 127.522 36.4697 129.281 35.0479 131.578C33.6442 133.875 32.6781 136.646 32.1494 139.891C31.6025 143.172 31.557 145.979 32.0127 148.313C32.4684 150.646 33.4528 152.432 34.9658 153.672C36.4971 154.911 38.5661 155.531 41.1729 155.531C43.5062 155.531 45.5205 155.194 47.2158 154.52C48.9111 153.845 50.2692 152.888 51.29 151.648C52.3109 150.409 52.9489 148.951 53.2041 147.273L55.8291 147.547H43.0322L44.7822 136.719H69.6104L68.3525 144.484C67.514 149.589 65.7093 153.954 62.9385 157.582C60.1859 161.191 56.7588 163.962 52.6572 165.895C48.5557 167.809 44.0531 168.766 39.1494 168.766C33.7171 168.766 29.1325 167.608 25.3955 165.293C21.6585 162.978 18.988 159.678 17.3838 155.395C15.7979 151.111 15.488 146.016 16.4541 140.109C17.2197 135.479 18.6051 131.378 20.6104 127.805C22.6338 124.232 25.1038 121.215 28.0205 118.754C30.9372 116.275 34.1546 114.406 37.6729 113.148C41.1911 111.872 44.8369 111.234 48.6104 111.234C51.9098 111.234 54.9085 111.708 57.6064 112.656C60.3044 113.586 62.6104 114.917 64.5244 116.648C66.4385 118.362 67.8695 120.395 68.8174 122.746C69.7835 125.098 70.1755 127.677 69.9932 130.484H54.626ZM83.3164 168.656C80.6549 168.656 78.3672 168.219 76.4531 167.344C74.5573 166.451 73.1719 165.102 72.2969 163.297C71.4401 161.474 71.2487 159.177 71.7227 156.406C72.1055 154.109 72.8255 152.15 73.8828 150.527C74.9401 148.905 76.2526 147.574 77.8203 146.535C79.388 145.496 81.1471 144.703 83.0977 144.156C85.0664 143.591 87.1445 143.227 89.332 143.062C91.7018 142.88 93.625 142.652 95.1016 142.379C96.5781 142.105 97.681 141.732 98.4102 141.258C99.1393 140.784 99.5768 140.146 99.7227 139.344V139.234C99.8867 138.141 99.5951 137.302 98.8477 136.719C98.1185 136.135 97.0977 135.844 95.7852 135.844C94.3633 135.844 93.1328 136.154 92.0938 136.773C91.0729 137.393 90.3711 138.359 89.9883 139.672H76.0977C76.681 137.12 77.875 134.768 79.6797 132.617C81.5026 130.448 83.918 128.716 86.9258 127.422C89.9518 126.109 93.5612 125.453 97.7539 125.453C100.743 125.453 103.368 125.809 105.629 126.52C107.889 127.212 109.758 128.187 111.234 129.445C112.729 130.685 113.777 132.143 114.379 133.82C114.999 135.479 115.145 137.284 114.816 139.234L110.004 168H95.8945L96.8789 162.094H96.5508C95.457 163.661 94.2266 164.928 92.8594 165.895C91.5104 166.861 90.0339 167.562 88.4297 168C86.8438 168.438 85.1393 168.656 83.3164 168.656ZM89.8789 159.141C91.0091 159.141 92.1211 158.904 93.2148 158.43C94.3086 157.956 95.2474 157.272 96.0313 156.379C96.8151 155.486 97.3164 154.401 97.5352 153.125L98.082 149.625C97.681 149.789 97.2344 149.944 96.7422 150.09C96.2682 150.217 95.7669 150.345 95.2383 150.473C94.7279 150.6 94.181 150.719 93.5977 150.828C93.0326 150.937 92.4492 151.047 91.8477 151.156C90.6445 151.339 89.6328 151.639 88.8125 152.059C87.9922 152.46 87.3542 152.961 86.8984 153.562C86.4427 154.146 86.1602 154.802 86.0508 155.531C85.8867 156.68 86.151 157.573 86.8437 158.211C87.5547 158.831 88.5664 159.141 89.8789 159.141ZM117.325 168L124.325 126H138.653L137.341 133.984H137.778C139.073 131.359 140.905 129.281 143.274 127.75C145.644 126.219 148.297 125.453 151.231 125.453C154.166 125.453 156.573 126.237 158.45 127.805C160.328 129.354 161.276 131.414 161.294 133.984H161.731C162.862 131.414 164.712 129.354 167.282 127.805C169.853 126.237 172.705 125.453 175.841 125.453C179.833 125.453 182.868 126.747 184.946 129.336C187.043 131.924 187.726 135.37 186.997 139.672L182.294 168H167.2L171.356 143.5C171.612 141.659 171.356 140.219 170.591 139.18C169.825 138.122 168.659 137.594 167.091 137.594C165.541 137.594 164.229 138.122 163.153 139.18C162.096 140.219 161.44 141.659 161.185 143.5L157.028 168H142.591L146.747 143.5C147.002 141.659 146.747 140.219 145.981 139.18C145.216 138.122 144.049 137.594 142.481 137.594C141.461 137.594 140.531 137.831 139.692 138.305C138.872 138.779 138.188 139.462 137.642 140.355C137.113 141.23 136.757 142.279 136.575 143.5L132.419 168H117.325ZM189.629 168L196.629 126H211.723L204.723 168H189.629ZM204.832 121.625C202.79 121.625 201.141 120.951 199.883 119.602C198.625 118.234 198.16 116.612 198.488 114.734C198.816 112.82 199.819 111.198 201.496 109.867C203.173 108.518 205.033 107.844 207.074 107.844C209.134 107.844 210.775 108.518 211.996 109.867C213.217 111.198 213.673 112.82 213.363 114.734C213.072 116.612 212.087 118.234 210.41 119.602C208.751 120.951 206.892 121.625 204.832 121.625Z"/>
</mask>
<path d="M5.40723 75L14.7041 19H29.9072L26.1885 41.6406H26.9541L47.5166 19H65.2354L42.2666 43.9375L56.376 75H38.2197L29.251 54L23.0166 60.6719L20.6104 75H5.40723ZM72.2627 75.6563C69.6012 75.6563 67.3135 75.2188 65.3994 74.3437C63.5036 73.4505 62.1182 72.1016 61.2432 70.2969C60.3864 68.474 60.195 66.1771 60.6689 63.4062C61.0518 61.1094 61.7718 59.1497 62.8291 57.5273C63.8864 55.9049 65.1989 54.5742 66.7666 53.5352C68.3343 52.4961 70.0934 51.7031 72.0439 51.1562C74.0127 50.5911 76.0908 50.2266 78.2783 50.0625C80.6481 49.8802 82.5713 49.6523 84.0479 49.3789C85.5244 49.1055 86.6273 48.7318 87.3564 48.2578C88.0856 47.7839 88.5231 47.1458 88.6689 46.3437V46.2344C88.833 45.1406 88.5413 44.3021 87.7939 43.7188C87.0648 43.1354 86.0439 42.8437 84.7314 42.8437C83.3096 42.8437 82.0791 43.1536 81.04 43.7734C80.0192 44.3932 79.3174 45.3594 78.9346 46.6719H65.0439C65.6273 44.1198 66.8213 41.7682 68.626 39.6172C70.4489 37.4479 72.8643 35.7161 75.8721 34.4219C78.8981 33.1094 82.5075 32.4531 86.7002 32.4531C89.6898 32.4531 92.3148 32.8086 94.5752 33.5195C96.8356 34.2122 98.7041 35.1875 100.181 36.4453C101.675 37.6849 102.724 39.1432 103.325 40.8203C103.945 42.4792 104.091 44.2839 103.763 46.2344L98.9502 75H84.8408L85.8252 69.0937H85.4971C84.4033 70.6615 83.1729 71.9284 81.8057 72.8945C80.4567 73.8607 78.9801 74.5625 77.376 75C75.79 75.4375 74.0856 75.6563 72.2627 75.6563ZM78.8252 66.1406C79.9554 66.1406 81.0674 65.9036 82.1611 65.4297C83.2549 64.9557 84.1937 64.2721 84.9775 63.3789C85.7614 62.4857 86.2627 61.401 86.4814 60.125L87.0283 56.625C86.6273 56.7891 86.1807 56.944 85.6885 57.0898C85.2145 57.2174 84.7132 57.3451 84.1846 57.4727C83.6742 57.6003 83.1273 57.7187 82.5439 57.8281C81.9788 57.9375 81.3955 58.0469 80.7939 58.1562C79.5908 58.3385 78.5791 58.6393 77.7588 59.0586C76.9385 59.4596 76.3005 59.9609 75.8447 60.5625C75.389 61.1458 75.1064 61.8021 74.9971 62.5312C74.833 63.6797 75.0973 64.5729 75.79 65.2109C76.501 65.8307 77.5127 66.1406 78.8252 66.1406ZM113.6 75L110.1 33H125.193L125.74 58.5937H126.068L135.693 33H150.35L151.662 58.375H151.99L160.85 33H175.943L158.443 75H142.146L139.959 52.4687H139.521L129.896 75H113.6ZM185.131 75.6563C182.469 75.6563 180.182 75.2188 178.268 74.3437C176.372 73.4505 174.986 72.1016 174.111 70.2969C173.255 68.474 173.063 66.1771 173.537 63.4062C173.92 61.1094 174.64 59.1497 175.697 57.5273C176.755 55.9049 178.067 54.5742 179.635 53.5352C181.202 52.4961 182.962 51.7031 184.912 51.1562C186.881 50.5911 188.959 50.2266 191.146 50.0625C193.516 49.8802 195.439 49.6523 196.916 49.3789C198.393 49.1055 199.495 48.7318 200.225 48.2578C200.954 47.7839 201.391 47.1458 201.537 46.3437V46.2344C201.701 45.1406 201.41 44.3021 200.662 43.7188C199.933 43.1354 198.912 42.8437 197.6 42.8437C196.178 42.8437 194.947 43.1536 193.908 43.7734C192.887 44.3932 192.186 45.3594 191.803 46.6719H177.912C178.495 44.1198 179.689 41.7682 181.494 39.6172C183.317 37.4479 185.732 35.7161 188.74 34.4219C191.766 33.1094 195.376 32.4531 199.568 32.4531C202.558 32.4531 205.183 32.8086 207.443 33.5195C209.704 34.2122 211.572 35.1875 213.049 36.4453C214.544 37.6849 215.592 39.1432 216.193 40.8203C216.813 42.4792 216.959 44.2839 216.631 46.2344L211.818 75H197.709L198.693 69.0937H198.365C197.271 70.6615 196.041 71.9284 194.674 72.8945C193.325 73.8607 191.848 74.5625 190.244 75C188.658 75.4375 186.954 75.6563 185.131 75.6563ZM191.693 66.1406C192.824 66.1406 193.936 65.9036 195.029 65.4297C196.123 64.9557 197.062 64.2721 197.846 63.3789C198.63 62.4857 199.131 61.401 199.35 60.125L199.896 56.625C199.495 56.7891 199.049 56.944 198.557 57.0898C198.083 57.2174 197.581 57.3451 197.053 57.4727C196.542 57.6003 195.995 57.7187 195.412 57.8281C194.847 57.9375 194.264 58.0469 193.662 58.1562C192.459 58.3385 191.447 58.6393 190.627 59.0586C189.807 59.4596 189.169 59.9609 188.713 60.5625C188.257 61.1458 187.975 61.8021 187.865 62.5312C187.701 63.6797 187.965 64.5729 188.658 65.2109C189.369 65.8307 190.381 66.1406 191.693 66.1406ZM54.626 130.484C54.5531 129.518 54.3525 128.671 54.0244 127.941C53.6963 127.194 53.2314 126.565 52.6299 126.055C52.0283 125.526 51.2809 125.134 50.3877 124.879C49.5127 124.605 48.4827 124.469 47.2979 124.469C44.7458 124.469 42.4216 125.079 40.3252 126.301C38.2288 127.522 36.4697 129.281 35.0479 131.578C33.6442 133.875 32.6781 136.646 32.1494 139.891C31.6025 143.172 31.557 145.979 32.0127 148.313C32.4684 150.646 33.4528 152.432 34.9658 153.672C36.4971 154.911 38.5661 155.531 41.1729 155.531C43.5062 155.531 45.5205 155.194 47.2158 154.52C48.9111 153.845 50.2692 152.888 51.29 151.648C52.3109 150.409 52.9489 148.951 53.2041 147.273L55.8291 147.547H43.0322L44.7822 136.719H69.6104L68.3525 144.484C67.514 149.589 65.7093 153.954 62.9385 157.582C60.1859 161.191 56.7588 163.962 52.6572 165.895C48.5557 167.809 44.0531 168.766 39.1494 168.766C33.7171 168.766 29.1325 167.608 25.3955 165.293C21.6585 162.978 18.988 159.678 17.3838 155.395C15.7979 151.111 15.488 146.016 16.4541 140.109C17.2197 135.479 18.6051 131.378 20.6104 127.805C22.6338 124.232 25.1038 121.215 28.0205 118.754C30.9372 116.275 34.1546 114.406 37.6729 113.148C41.1911 111.872 44.8369 111.234 48.6104 111.234C51.9098 111.234 54.9085 111.708 57.6064 112.656C60.3044 113.586 62.6104 114.917 64.5244 116.648C66.4385 118.362 67.8695 120.395 68.8174 122.746C69.7835 125.098 70.1755 127.677 69.9932 130.484H54.626ZM83.3164 168.656C80.6549 168.656 78.3672 168.219 76.4531 167.344C74.5573 166.451 73.1719 165.102 72.2969 163.297C71.4401 161.474 71.2487 159.177 71.7227 156.406C72.1055 154.109 72.8255 152.15 73.8828 150.527C74.9401 148.905 76.2526 147.574 77.8203 146.535C79.388 145.496 81.1471 144.703 83.0977 144.156C85.0664 143.591 87.1445 143.227 89.332 143.062C91.7018 142.88 93.625 142.652 95.1016 142.379C96.5781 142.105 97.681 141.732 98.4102 141.258C99.1393 140.784 99.5768 140.146 99.7227 139.344V139.234C99.8867 138.141 99.5951 137.302 98.8477 136.719C98.1185 136.135 97.0977 135.844 95.7852 135.844C94.3633 135.844 93.1328 136.154 92.0938 136.773C91.0729 137.393 90.3711 138.359 89.9883 139.672H76.0977C76.681 137.12 77.875 134.768 79.6797 132.617C81.5026 130.448 83.918 128.716 86.9258 127.422C89.9518 126.109 93.5612 125.453 97.7539 125.453C100.743 125.453 103.368 125.809 105.629 126.52C107.889 127.212 109.758 128.187 111.234 129.445C112.729 130.685 113.777 132.143 114.379 133.82C114.999 135.479 115.145 137.284 114.816 139.234L110.004 168H95.8945L96.8789 162.094H96.5508C95.457 163.661 94.2266 164.928 92.8594 165.895C91.5104 166.861 90.0339 167.562 88.4297 168C86.8438 168.438 85.1393 168.656 83.3164 168.656ZM89.8789 159.141C91.0091 159.141 92.1211 158.904 93.2148 158.43C94.3086 157.956 95.2474 157.272 96.0313 156.379C96.8151 155.486 97.3164 154.401 97.5352 153.125L98.082 149.625C97.681 149.789 97.2344 149.944 96.7422 150.09C96.2682 150.217 95.7669 150.345 95.2383 150.473C94.7279 150.6 94.181 150.719 93.5977 150.828C93.0326 150.937 92.4492 151.047 91.8477 151.156C90.6445 151.339 89.6328 151.639 88.8125 152.059C87.9922 152.46 87.3542 152.961 86.8984 153.562C86.4427 154.146 86.1602 154.802 86.0508 155.531C85.8867 156.68 86.151 157.573 86.8437 158.211C87.5547 158.831 88.5664 159.141 89.8789 159.141ZM117.325 168L124.325 126H138.653L137.341 133.984H137.778C139.073 131.359 140.905 129.281 143.274 127.75C145.644 126.219 148.297 125.453 151.231 125.453C154.166 125.453 156.573 126.237 158.45 127.805C160.328 129.354 161.276 131.414 161.294 133.984H161.731C162.862 131.414 164.712 129.354 167.282 127.805C169.853 126.237 172.705 125.453 175.841 125.453C179.833 125.453 182.868 126.747 184.946 129.336C187.043 131.924 187.726 135.37 186.997 139.672L182.294 168H167.2L171.356 143.5C171.612 141.659 171.356 140.219 170.591 139.18C169.825 138.122 168.659 137.594 167.091 137.594C165.541 137.594 164.229 138.122 163.153 139.18C162.096 140.219 161.44 141.659 161.185 143.5L157.028 168H142.591L146.747 143.5C147.002 141.659 146.747 140.219 145.981 139.18C145.216 138.122 144.049 137.594 142.481 137.594C141.461 137.594 140.531 137.831 139.692 138.305C138.872 138.779 138.188 139.462 137.642 140.355C137.113 141.23 136.757 142.279 136.575 143.5L132.419 168H117.325ZM189.629 168L196.629 126H211.723L204.723 168H189.629ZM204.832 121.625C202.79 121.625 201.141 120.951 199.883 119.602C198.625 118.234 198.16 116.612 198.488 114.734C198.816 112.82 199.819 111.198 201.496 109.867C203.173 108.518 205.033 107.844 207.074 107.844C209.134 107.844 210.775 108.518 211.996 109.867C213.217 111.198 213.673 112.82 213.363 114.734C213.072 116.612 212.087 118.234 210.41 119.602C208.751 120.951 206.892 121.625 204.832 121.625Z" fill="#0C0C0C"/>
<path d="M5.40723 75L0.474737 74.1811C0.234119 75.6305 0.643136 77.1123 1.59315 78.2331C2.54317 79.3538 3.93802 80 5.40723 80L5.40723 75ZM14.7041 19V14C12.2587 14 10.1721 15.7688 9.77161 18.1811L14.7041 19ZM29.9072 19L34.8411 19.8104C35.079 18.3621 34.6685 16.8824 33.7185 15.7636C32.7685 14.6449 31.3749 14 29.9072 14V19ZM26.1885 41.6406L21.2546 40.8302C21.0167 42.2785 21.4272 43.7582 22.3772 44.877C23.3272 45.9958 24.7208 46.6406 26.1885 46.6406V41.6406ZM26.9541 41.6406V46.6406C28.3637 46.6406 29.7077 46.0457 30.6554 45.0022L26.9541 41.6406ZM47.5166 19V14C46.107 14 44.763 14.595 43.8153 15.6384L47.5166 19ZM65.2354 19L68.9131 22.3874C70.2579 20.9273 70.6116 18.81 69.8145 16.9921C69.0174 15.1742 67.2203 14 65.2354 14V19ZM42.2666 43.9375L38.5889 40.5501C37.2279 42.0277 36.8834 44.1763 37.7142 46.0053L42.2666 43.9375ZM56.376 75V80C58.0757 80 59.6591 79.1365 60.5795 77.7075C61.4999 76.2785 61.6313 74.4798 60.9284 72.9322L56.376 75ZM38.2197 75L33.6215 76.9638C34.408 78.8053 36.2173 80 38.2197 80V75ZM29.251 54L33.8492 52.0362C33.1853 50.4818 31.781 49.368 30.1163 49.0754C28.4515 48.7829 26.7517 49.3513 25.5977 50.5863L29.251 54ZM23.0166 60.6719L19.3633 57.2582C18.6927 57.9758 18.2483 58.8751 18.0857 59.8438L23.0166 60.6719ZM20.6104 75V80C23.0522 80 25.1369 78.2362 25.5413 75.8281L20.6104 75ZM10.3397 75.8189L19.6366 19.8189L9.77161 18.1811L0.474737 74.1811L10.3397 75.8189ZM14.7041 24H29.9072V14H14.7041V24ZM24.9733 18.1896L21.2546 40.8302L31.1224 42.451L34.8411 19.8104L24.9733 18.1896ZM26.1885 46.6406H26.9541V36.6406H26.1885V46.6406ZM30.6554 45.0022L51.2179 22.3616L43.8153 15.6384L23.2528 38.279L30.6554 45.0022ZM47.5166 24H65.2354V14H47.5166V24ZM61.5576 15.6126L38.5889 40.5501L45.9443 47.3249L68.9131 22.3874L61.5576 15.6126ZM37.7142 46.0053L51.8236 77.0678L60.9284 72.9322L46.819 41.8697L37.7142 46.0053ZM56.376 70H38.2197V80H56.376V70ZM42.8179 73.0362L33.8492 52.0362L24.6528 55.9638L33.6215 76.9638L42.8179 73.0362ZM25.5977 50.5863L19.3633 57.2582L26.6699 64.0856L32.9043 57.4137L25.5977 50.5863ZM18.0857 59.8438L15.6794 74.1719L25.5413 75.8281L27.9476 61.5L18.0857 59.8438ZM20.6104 70H5.40723V80H20.6104V70ZM65.3994 74.3437L63.2683 78.8669C63.2857 78.875 63.3031 78.8831 63.3206 78.8911L65.3994 74.3437ZM61.2432 70.2969L56.718 72.4237C56.7266 72.4419 56.7353 72.4601 56.7441 72.4782L61.2432 70.2969ZM60.6689 63.4062L65.5974 64.2493C65.5986 64.2423 65.5997 64.2353 65.6009 64.2282L60.6689 63.4062ZM62.8291 57.5273L67.0181 60.2572L67.0181 60.2572L62.8291 57.5273ZM66.7666 53.5352L69.5289 57.7028L69.5289 57.7028L66.7666 53.5352ZM72.0439 51.1562L73.3938 55.9706C73.4037 55.9678 73.4135 55.965 73.4234 55.9622L72.0439 51.1562ZM78.2783 50.0625L78.6523 55.0485L78.6618 55.0478L78.2783 50.0625ZM84.0479 49.3789L83.1374 44.4625L83.1374 44.4625L84.0479 49.3789ZM87.3564 48.2578L84.6315 44.0656L84.6315 44.0656L87.3564 48.2578ZM88.6689 46.3437L93.5883 47.2382C93.642 46.9431 93.6689 46.6437 93.6689 46.3437H88.6689ZM88.6689 46.2344L83.7243 45.4927C83.6874 45.7382 83.6689 45.9861 83.6689 46.2344H88.6689ZM87.7939 43.7188L84.6705 47.6231C84.6861 47.6356 84.7018 47.648 84.7176 47.6603L87.7939 43.7188ZM81.04 43.7734L78.4786 39.4793C78.4675 39.486 78.4563 39.4927 78.4451 39.4995L81.04 43.7734ZM78.9346 46.6719V51.6719C81.1568 51.6719 83.1123 50.2052 83.7346 48.0719L78.9346 46.6719ZM65.0439 46.6719L60.1697 45.5577C59.8305 47.0414 60.1856 48.5987 61.1343 49.7887C62.083 50.9787 63.522 51.6719 65.0439 51.6719V46.6719ZM68.626 39.6172L64.7981 36.4005L64.7955 36.4035L68.626 39.6172ZM75.8721 34.4219L77.8484 39.0147C77.8528 39.0128 77.8572 39.0109 77.8617 39.009L75.8721 34.4219ZM94.5752 33.5195L93.0751 38.2892C93.0868 38.2929 93.0985 38.2965 93.1102 38.3001L94.5752 33.5195ZM100.181 36.4453L96.9383 40.2515C96.9551 40.2658 96.972 40.28 96.989 40.2941L100.181 36.4453ZM103.325 40.8203L98.6188 42.5085C98.6262 42.5291 98.6338 42.5497 98.6414 42.5703L103.325 40.8203ZM103.763 46.2344L98.832 45.4049L98.8312 45.4093L103.763 46.2344ZM98.9502 75V80C101.393 80 103.479 78.2346 103.882 75.825L98.9502 75ZM84.8408 75L79.9089 74.178C79.6672 75.6278 80.0757 77.1104 81.0257 78.2319C81.9757 79.3533 83.3711 80 84.8408 80V75ZM85.8252 69.0937L90.7572 69.9157C90.9988 68.466 90.5903 66.9833 89.6403 65.8619C88.6903 64.7404 87.295 64.0937 85.8252 64.0937V69.0937ZM85.4971 69.0937V64.0937C83.8627 64.0937 82.3316 64.8925 81.3964 66.2328L85.4971 69.0937ZM81.8057 72.8945L78.9201 68.8112C78.9115 68.8173 78.9029 68.8234 78.8943 68.8296L81.8057 72.8945ZM77.376 75L76.0604 70.1762C76.0557 70.1775 76.051 70.1787 76.0463 70.18L77.376 75ZM82.1611 65.4297L84.1492 70.0175L84.1492 70.0175L82.1611 65.4297ZM84.9775 63.3789L88.7357 66.6769L88.7357 66.6769L84.9775 63.3789ZM86.4814 60.125L91.4096 60.9698C91.4137 60.9455 91.4177 60.9212 91.4215 60.8969L86.4814 60.125ZM87.0283 56.625L91.9684 57.3969C92.2469 55.6146 91.5437 53.8204 90.1283 52.702C88.7129 51.5835 86.8048 51.3142 85.1352 51.9973L87.0283 56.625ZM85.6885 57.0898L86.9883 61.9179C87.0287 61.9071 87.0689 61.8957 87.1089 61.8838L85.6885 57.0898ZM84.1846 57.4727L83.0114 52.6122C82.9982 52.6154 82.985 52.6187 82.9719 52.6219L84.1846 57.4727ZM82.5439 57.8281L81.6225 52.9138C81.6129 52.9156 81.6034 52.9174 81.5938 52.9192L82.5439 57.8281ZM80.7939 58.1562L81.543 63.0998C81.5916 63.0925 81.64 63.0844 81.6884 63.0756L80.7939 58.1562ZM77.7588 59.0586L79.9548 63.5505C79.9815 63.5375 80.008 63.5243 80.0343 63.5108L77.7588 59.0586ZM75.8447 60.5625L79.7848 63.6407C79.8001 63.6212 79.8152 63.6015 79.8302 63.5818L75.8447 60.5625ZM74.9971 62.5312L70.0524 61.7896C70.0507 61.8011 70.049 61.8126 70.0473 61.8241L74.9971 62.5312ZM75.79 65.2109L72.4027 68.8887C72.4361 68.9195 72.47 68.9499 72.5044 68.9798L75.79 65.2109ZM72.2627 70.6563C70.135 70.6563 68.5912 70.3052 67.4782 69.7964L63.3206 78.8911C66.0357 80.1323 69.0675 80.6563 72.2627 80.6563V70.6563ZM67.5305 69.8206C66.6182 69.3908 66.095 68.8431 65.7422 68.1155L56.7441 72.4782C58.1413 75.36 60.3889 77.5102 63.2683 78.8669L67.5305 69.8206ZM65.7683 68.1701C65.4877 67.5732 65.2297 66.3985 65.5974 64.2493L55.7405 62.5632C55.1602 65.9557 55.285 69.3747 56.718 72.4237L65.7683 68.1701ZM65.6009 64.2282C65.8928 62.4767 66.4056 61.1971 67.0181 60.2572L58.6401 54.7974C57.138 57.1024 56.2107 59.7421 55.737 62.5843L65.6009 64.2282ZM67.0181 60.2572C67.7142 59.1891 68.5469 58.3537 69.5289 57.7028L64.0043 49.3675C61.8509 50.7947 60.0586 52.6208 58.6401 54.7974L67.0181 60.2572ZM69.5289 57.7028C70.6301 56.973 71.9063 56.3877 73.3938 55.9706L70.6941 46.3419C68.2806 47.0186 66.0385 48.0192 64.0043 49.3675L69.5289 57.7028ZM73.4234 55.9622C75.0417 55.4977 76.7813 55.1888 78.6523 55.0485L77.9044 45.0765C75.4004 45.2643 72.9836 45.6846 70.6645 46.3503L73.4234 55.9622ZM78.6618 55.0478C81.1194 54.8587 83.2375 54.614 84.9583 54.2953L83.1374 44.4625C81.9051 44.6907 80.1768 44.9017 77.8948 45.0772L78.6618 55.0478ZM84.9583 54.2953C86.6799 53.9765 88.539 53.4526 90.0814 52.45L84.6315 44.0656C84.7113 44.0137 84.6587 44.0628 84.3778 44.158C84.1071 44.2498 83.7038 44.3576 83.1374 44.4625L84.9583 54.2953ZM90.0814 52.45C91.8786 51.2818 93.1784 49.4927 93.5883 47.2382L83.7496 45.4493C83.7958 45.1951 83.9068 44.8894 84.1078 44.5962C84.3045 44.3094 84.513 44.1426 84.6315 44.0656L90.0814 52.45ZM93.6689 46.3437V46.2344H83.6689V46.3437H93.6689ZM93.6136 46.9761C93.9919 44.454 93.302 41.6751 90.8703 39.7772L84.7176 47.6603C84.3867 47.4021 84.0427 46.9797 83.8508 46.4278C83.673 45.9166 83.7151 45.5536 83.7243 45.4927L93.6136 46.9761ZM90.9174 39.8144C89.0034 38.2832 86.7271 37.8437 84.7314 37.8437V47.8437C84.8757 47.8437 84.9771 47.8518 85.041 47.8598C85.1047 47.8678 85.1241 47.8748 85.1078 47.8701C85.0908 47.8652 85.0364 47.8481 84.9563 47.8081C84.875 47.7674 84.7759 47.7074 84.6705 47.6231L90.9174 39.8144ZM84.7314 37.8437C82.5674 37.8437 80.4187 38.3221 78.4786 39.4793L83.6014 48.0675C83.7395 47.9852 84.0517 47.8437 84.7314 47.8437V37.8437ZM78.4451 39.4995C76.2009 40.8621 74.8131 42.9456 74.1346 45.2719L83.7346 48.0719C83.7615 47.9795 83.7846 47.9255 83.7961 47.9014C83.8072 47.8781 83.8081 47.8812 83.7934 47.9015C83.7782 47.9224 83.7538 47.9513 83.7208 47.9817C83.6877 48.0121 83.657 48.034 83.6349 48.0474L78.4451 39.4995ZM78.9346 41.6719H65.0439V51.6719H78.9346V41.6719ZM69.9182 47.786C70.3123 46.0621 71.1233 44.4198 72.4564 42.8309L64.7955 36.4035C62.5193 39.1166 60.9423 42.1775 60.1697 45.5577L69.9182 47.786ZM72.4539 42.8339C73.7026 41.3479 75.445 40.0489 77.8484 39.0147L73.8958 29.829C70.2835 31.3834 67.1952 33.5479 64.7981 36.4005L72.4539 42.8339ZM77.8617 39.009C80.1143 38.0319 83.0133 37.4531 86.7002 37.4531V27.4531C82.0017 27.4531 77.6819 28.1868 73.8825 29.8348L77.8617 39.009ZM86.7002 37.4531C89.3077 37.4531 91.4077 37.7648 93.0751 38.2892L96.0753 28.7499C93.2218 27.8524 90.0719 27.4531 86.7002 27.4531V37.4531ZM93.1102 38.3001C94.8573 38.8355 96.082 39.5221 96.9383 40.2515L103.423 32.6391C101.326 30.8529 98.814 29.589 96.0402 28.739L93.1102 38.3001ZM96.989 40.2941C97.8585 41.0151 98.3464 41.7492 98.6188 42.5085L108.032 39.1321C107.101 36.5373 105.492 34.3547 103.372 32.5965L96.989 40.2941ZM98.6414 42.5703C98.9189 43.3128 99.0318 44.2173 98.832 45.4049L108.693 47.0638C109.15 44.3504 108.971 41.6455 108.009 39.0703L98.6414 42.5703ZM98.8312 45.4093L94.0187 74.175L103.882 75.825L108.694 47.0594L98.8312 45.4093ZM98.9502 70H84.8408V80H98.9502V70ZM89.7728 75.822L90.7572 69.9157L80.8932 68.2718L79.9089 74.178L89.7728 75.822ZM85.8252 64.0937H85.4971V74.0937H85.8252V64.0937ZM81.3964 66.2328C80.5875 67.3922 79.7526 68.2229 78.9201 68.8112L84.6912 76.9779C86.5931 75.6339 88.2191 73.9307 89.5977 71.9547L81.3964 66.2328ZM78.8943 68.8296C78.029 69.4493 77.093 69.8946 76.0604 70.1762L78.6916 79.8238C80.8673 79.2304 82.8844 78.2721 84.7171 76.9595L78.8943 68.8296ZM76.0463 70.18C74.9374 70.486 73.6842 70.6563 72.2627 70.6563V80.6563C74.487 80.6563 76.6427 80.389 78.7056 79.82L76.0463 70.18ZM78.8252 71.1406C80.6764 71.1406 82.4628 70.7482 84.1492 70.0175L80.1731 60.8419C79.6719 61.0591 79.2344 61.1406 78.8252 61.1406V71.1406ZM84.1492 70.0175C85.9189 69.2506 87.4628 68.1273 88.7357 66.6769L81.2194 60.081C80.9246 60.417 80.5909 60.6609 80.1731 60.8419L84.1492 70.0175ZM88.7357 66.6769C90.1826 65.0281 91.0492 63.0716 91.4096 60.9698L81.5533 59.2802C81.4761 59.7304 81.3402 59.9433 81.2194 60.081L88.7357 66.6769ZM91.4215 60.8969L91.9684 57.3969L82.0883 55.8531L81.5414 59.3531L91.4215 60.8969ZM85.1352 51.9973C84.9139 52.0878 84.6283 52.1891 84.268 52.2959L87.1089 61.8838C87.7331 61.6989 88.3406 61.4903 88.9215 61.2527L85.1352 51.9973ZM84.3886 52.2618C83.9609 52.3769 83.5021 52.4938 83.0114 52.6122L85.3578 62.3331C85.9243 62.1963 86.4681 62.058 86.9883 61.9179L84.3886 52.2618ZM82.9719 52.6219C82.5692 52.7226 82.1203 52.8204 81.6225 52.9138L83.4654 62.7425C84.1343 62.6171 84.7791 62.4779 85.3972 62.3234L82.9719 52.6219ZM81.5938 52.9192C81.0484 53.0248 80.4836 53.1307 79.8995 53.2369L81.6884 63.0756C82.3074 62.9631 82.9093 62.8502 83.4941 62.737L81.5938 52.9192ZM80.0449 53.2127C78.4702 53.4513 76.9084 53.878 75.4832 54.6064L80.0343 63.5108C80.2498 63.4006 80.7115 63.2258 81.543 63.0998L80.0449 53.2127ZM75.5627 54.5667C74.1847 55.2404 72.8771 56.1997 71.8593 57.5432L79.8302 63.5818C79.7809 63.6468 79.7466 63.6729 79.7541 63.6669C79.7641 63.6592 79.8225 63.6152 79.9548 63.5505L75.5627 54.5667ZM71.9046 57.4843C70.9204 58.744 70.2902 60.2044 70.0524 61.7896L79.9418 63.2729C79.9347 63.32 79.9176 63.3901 79.8834 63.4695C79.8493 63.5487 79.8111 63.6071 79.7848 63.6407L71.9046 57.4843ZM70.0473 61.8241C69.7116 64.1744 70.2125 66.8714 72.4027 68.8887L79.1774 61.5332C79.4879 61.8191 79.7396 62.2141 79.8668 62.6437C79.9822 63.0338 79.9422 63.2708 79.9468 63.2384L70.0473 61.8241ZM72.5044 68.9798C74.4276 70.6565 76.7763 71.1406 78.8252 71.1406V61.1406C78.5512 61.1406 78.4797 61.107 78.5464 61.1274C78.5835 61.1388 78.6572 61.1651 78.7543 61.2176C78.8528 61.2707 78.9638 61.3445 79.0757 61.4421L72.5044 68.9798ZM113.6 75L108.617 75.4152C108.833 78.0067 110.999 80 113.6 80V75ZM110.1 33V28C108.701 28 107.367 28.5855 106.42 29.6145C105.473 30.6434 105.001 32.0218 105.117 33.4152L110.1 33ZM125.193 33L130.192 32.8932C130.134 30.174 127.913 28 125.193 28V33ZM125.74 58.5937L120.741 58.7006C120.799 61.4197 123.02 63.5937 125.74 63.5937V58.5937ZM126.068 58.5937V63.5937C128.151 63.5937 130.015 62.303 130.748 60.3537L126.068 58.5937ZM135.693 33V28C133.611 28 131.746 29.2908 131.013 31.24L135.693 33ZM150.35 33L155.343 32.7417C155.205 30.0842 153.011 28 150.35 28V33ZM151.662 58.375L146.669 58.6333C146.806 61.2908 149.001 63.375 151.662 63.375V58.375ZM151.99 58.375V63.375C154.116 63.375 156.01 62.0304 156.711 60.0231L151.99 58.375ZM160.85 33V28C158.723 28 156.83 29.3446 156.129 31.3519L160.85 33ZM175.943 33L180.559 34.9231C181.202 33.3799 181.031 31.6175 180.104 30.2265C179.176 28.8355 177.615 28 175.943 28V33ZM158.443 75V80C160.462 80 162.282 78.7863 163.059 76.9231L158.443 75ZM142.146 75L137.17 75.4832C137.419 78.0454 139.572 80 142.146 80V75ZM139.959 52.4687L144.936 51.9856C144.687 49.4234 142.533 47.4687 139.959 47.4687V52.4687ZM139.521 52.4687V47.4687C137.519 47.4687 135.71 48.6632 134.923 50.5045L139.521 52.4687ZM129.896 75V80C131.899 80 133.708 78.8055 134.495 76.9642L129.896 75ZM118.582 74.5848L115.082 32.5848L105.117 33.4152L108.617 75.4152L118.582 74.5848ZM110.1 38H125.193V28H110.1V38ZM120.195 33.1068L120.741 58.7006L130.739 58.4869L130.192 32.8932L120.195 33.1068ZM125.74 63.5937H126.068V53.5937H125.74V63.5937ZM130.748 60.3537L140.373 34.76L131.013 31.24L121.388 56.8337L130.748 60.3537ZM135.693 38H150.35V28H135.693V38ZM145.356 33.2583L146.669 58.6333L156.655 58.1167L155.343 32.7417L145.356 33.2583ZM151.662 63.375H151.99V53.375H151.662V63.375ZM156.711 60.0231L165.57 34.6481L156.129 31.3519L147.27 56.7269L156.711 60.0231ZM160.85 38H175.943V28H160.85V38ZM171.328 31.0769L153.828 73.0769L163.059 76.9231L180.559 34.9231L171.328 31.0769ZM158.443 70H142.146V80H158.443V70ZM147.123 74.5168L144.936 51.9856L134.982 52.9519L137.17 75.4832L147.123 74.5168ZM139.959 47.4687H139.521V57.4687H139.959V47.4687ZM134.923 50.5045L125.298 73.0358L134.495 76.9642L144.12 54.433L134.923 50.5045ZM129.896 70H113.6V80H129.896V70ZM178.268 74.3437L176.136 78.8669C176.154 78.875 176.171 78.8831 176.189 78.8911L178.268 74.3437ZM174.111 70.2969L169.586 72.4237C169.595 72.4419 169.603 72.4601 169.612 72.4782L174.111 70.2969ZM173.537 63.4062L178.466 64.2493C178.467 64.2423 178.468 64.2353 178.469 64.2282L173.537 63.4062ZM175.697 57.5273L179.886 60.2572L179.886 60.2572L175.697 57.5273ZM179.635 53.5352L182.397 57.7028L182.397 57.7028L179.635 53.5352ZM184.912 51.1562L186.262 55.9706C186.272 55.9678 186.282 55.965 186.292 55.9622L184.912 51.1562ZM191.146 50.0625L191.52 55.0485L191.53 55.0478L191.146 50.0625ZM196.916 49.3789L196.006 44.4625L196.006 44.4625L196.916 49.3789ZM200.225 48.2578L197.5 44.0656L197.5 44.0656L200.225 48.2578ZM201.537 46.3437L206.456 47.2382C206.51 46.9431 206.537 46.6437 206.537 46.3437H201.537ZM201.537 46.2344L196.592 45.4927C196.556 45.7382 196.537 45.9861 196.537 46.2344H201.537ZM200.662 43.7188L197.539 47.6231C197.554 47.6356 197.57 47.648 197.586 47.6603L200.662 43.7188ZM193.908 43.7734L191.347 39.4793C191.336 39.486 191.324 39.4927 191.313 39.4995L193.908 43.7734ZM191.803 46.6719V51.6719C194.025 51.6719 195.981 50.2052 196.603 48.0719L191.803 46.6719ZM177.912 46.6719L173.038 45.5577C172.699 47.0414 173.054 48.5987 174.002 49.7887C174.951 50.9787 176.39 51.6719 177.912 51.6719V46.6719ZM181.494 39.6172L177.666 36.4005L177.664 36.4035L181.494 39.6172ZM188.74 34.4219L190.717 39.0147C190.721 39.0128 190.725 39.0109 190.73 39.009L188.74 34.4219ZM207.443 33.5195L205.943 38.2892C205.955 38.2929 205.967 38.2965 205.978 38.3001L207.443 33.5195ZM213.049 36.4453L209.806 40.2515C209.823 40.2658 209.84 40.28 209.857 40.2941L213.049 36.4453ZM216.193 40.8203L211.487 42.5085C211.494 42.5291 211.502 42.5497 211.51 42.5703L216.193 40.8203ZM216.631 46.2344L211.7 45.4049L211.699 45.4093L216.631 46.2344ZM211.818 75V80C214.261 80 216.347 78.2346 216.75 75.825L211.818 75ZM197.709 75L192.777 74.178C192.535 75.6278 192.944 77.1104 193.894 78.2319C194.844 79.3533 196.239 80 197.709 80V75ZM198.693 69.0937L203.625 69.9157C203.867 68.466 203.458 66.9833 202.508 65.8619C201.558 64.7404 200.163 64.0937 198.693 64.0937V69.0937ZM198.365 69.0937V64.0937C196.731 64.0937 195.2 64.8925 194.265 66.2328L198.365 69.0937ZM194.674 72.8945L191.788 68.8112C191.78 68.8173 191.771 68.8234 191.762 68.8296L194.674 72.8945ZM190.244 75L188.929 70.1762C188.924 70.1775 188.919 70.1787 188.914 70.18L190.244 75ZM195.029 65.4297L197.017 70.0175L197.017 70.0175L195.029 65.4297ZM197.846 63.3789L201.604 66.6769L201.604 66.6769L197.846 63.3789ZM199.35 60.125L204.278 60.9698C204.282 60.9455 204.286 60.9212 204.29 60.8969L199.35 60.125ZM199.896 56.625L204.837 57.3969C205.115 55.6146 204.412 53.8204 202.996 52.702C201.581 51.5835 199.673 51.3142 198.003 51.9973L199.896 56.625ZM198.557 57.0898L199.857 61.9179C199.897 61.9071 199.937 61.8957 199.977 61.8838L198.557 57.0898ZM197.053 57.4727L195.88 52.6122C195.866 52.6154 195.853 52.6187 195.84 52.6219L197.053 57.4727ZM195.412 57.8281L194.491 52.9138C194.481 52.9156 194.472 52.9174 194.462 52.9192L195.412 57.8281ZM193.662 58.1562L194.411 63.0998C194.46 63.0925 194.508 63.0844 194.557 63.0756L193.662 58.1562ZM190.627 59.0586L192.823 63.5505C192.85 63.5375 192.876 63.5243 192.903 63.5108L190.627 59.0586ZM188.713 60.5625L192.653 63.6407C192.668 63.6212 192.683 63.6015 192.698 63.5818L188.713 60.5625ZM187.865 62.5312L182.921 61.7896C182.919 61.8011 182.917 61.8126 182.915 61.8241L187.865 62.5312ZM188.658 65.2109L185.271 68.8887C185.304 68.9195 185.338 68.9499 185.373 68.9798L188.658 65.2109ZM185.131 70.6563C183.003 70.6563 181.459 70.3052 180.346 69.7964L176.189 78.8911C178.904 80.1323 181.936 80.6563 185.131 80.6563V70.6563ZM180.399 69.8206C179.486 69.3908 178.963 68.8431 178.61 68.1155L169.612 72.4782C171.009 75.36 173.257 77.5102 176.136 78.8669L180.399 69.8206ZM178.636 68.1701C178.356 67.5732 178.098 66.3985 178.466 64.2493L168.609 62.5632C168.028 65.9557 168.153 69.3747 169.586 72.4237L178.636 68.1701ZM178.469 64.2282C178.761 62.4767 179.274 61.1971 179.886 60.2572L171.508 54.7974C170.006 57.1024 169.079 59.7421 168.605 62.5843L178.469 64.2282ZM179.886 60.2572C180.582 59.1891 181.415 58.3537 182.397 57.7028L176.872 49.3675C174.719 50.7947 172.927 52.6208 171.508 54.7974L179.886 60.2572ZM182.397 57.7028C183.498 56.973 184.774 56.3877 186.262 55.9706L183.562 46.3419C181.149 47.0186 178.907 48.0192 176.872 49.3675L182.397 57.7028ZM186.292 55.9622C187.91 55.4977 189.649 55.1888 191.52 55.0485L190.773 45.0765C188.269 45.2643 185.852 45.6846 183.533 46.3503L186.292 55.9622ZM191.53 55.0478C193.988 54.8587 196.106 54.614 197.826 54.2953L196.006 44.4625C194.773 44.6907 193.045 44.9017 190.763 45.0772L191.53 55.0478ZM197.826 54.2953C199.548 53.9765 201.407 53.4526 202.95 52.45L197.5 44.0656C197.579 44.0137 197.527 44.0628 197.246 44.158C196.975 44.2498 196.572 44.3576 196.006 44.4625L197.826 54.2953ZM202.95 52.45C204.747 51.2818 206.047 49.4927 206.456 47.2382L196.618 45.4493C196.664 45.1951 196.775 44.8894 196.976 44.5962C197.173 44.3094 197.381 44.1426 197.5 44.0656L202.95 52.45ZM206.537 46.3437V46.2344H196.537V46.3437H206.537ZM206.482 46.9761C206.86 44.454 206.17 41.6751 203.738 39.7772L197.586 47.6603C197.255 47.4021 196.911 46.9797 196.719 46.4278C196.541 45.9166 196.583 45.5536 196.592 45.4927L206.482 46.9761ZM203.786 39.8144C201.872 38.2832 199.595 37.8437 197.6 37.8437V47.8437C197.744 47.8437 197.845 47.8518 197.909 47.8598C197.973 47.8678 197.992 47.8748 197.976 47.8701C197.959 47.8652 197.905 47.8481 197.824 47.8081C197.743 47.7674 197.644 47.7074 197.539 47.6231L203.786 39.8144ZM197.6 37.8437C195.436 37.8437 193.287 38.3221 191.347 39.4793L196.47 48.0675C196.608 47.9852 196.92 47.8437 197.6 47.8437V37.8437ZM191.313 39.4995C189.069 40.8621 187.681 42.9456 187.003 45.2719L196.603 48.0719C196.63 47.9795 196.653 47.9255 196.664 47.9014C196.675 47.8781 196.676 47.8812 196.662 47.9015C196.646 47.9224 196.622 47.9513 196.589 47.9817C196.556 48.0121 196.525 48.034 196.503 48.0474L191.313 39.4995ZM191.803 41.6719H177.912V51.6719H191.803V41.6719ZM182.786 47.786C183.18 46.0621 183.991 44.4198 185.325 42.8309L177.664 36.4035C175.387 39.1166 173.81 42.1775 173.038 45.5577L182.786 47.786ZM185.322 42.8339C186.571 41.3479 188.313 40.0489 190.717 39.0147L186.764 29.829C183.152 31.3834 180.063 33.5479 177.666 36.4005L185.322 42.8339ZM190.73 39.009C192.982 38.0319 195.881 37.4531 199.568 37.4531V27.4531C194.87 27.4531 190.55 28.1868 186.751 29.8348L190.73 39.009ZM199.568 37.4531C202.176 37.4531 204.276 37.7648 205.943 38.2892L208.943 28.7499C206.09 27.8524 202.94 27.4531 199.568 27.4531V37.4531ZM205.978 38.3001C207.725 38.8355 208.95 39.5221 209.806 40.2515L216.291 32.6391C214.194 30.8529 211.682 29.589 208.908 28.739L205.978 38.3001ZM209.857 40.2941C210.727 41.0151 211.215 41.7492 211.487 42.5085L220.9 39.1321C219.969 36.5373 218.361 34.3547 216.241 32.5965L209.857 40.2941ZM211.51 42.5703C211.787 43.3128 211.9 44.2173 211.7 45.4049L221.562 47.0638C222.018 44.3504 221.839 41.6455 220.877 39.0703L211.51 42.5703ZM211.699 45.4093L206.887 74.175L216.75 75.825L221.562 47.0594L211.699 45.4093ZM211.818 70H197.709V80H211.818V70ZM202.641 75.822L203.625 69.9157L193.761 68.2718L192.777 74.178L202.641 75.822ZM198.693 64.0937H198.365V74.0937H198.693V64.0937ZM194.265 66.2328C193.456 67.3922 192.621 68.2229 191.788 68.8112L197.559 76.9779C199.461 75.6339 201.087 73.9307 202.466 71.9547L194.265 66.2328ZM191.762 68.8296C190.897 69.4493 189.961 69.8946 188.929 70.1762L191.56 79.8238C193.735 79.2304 195.753 78.2721 197.585 76.9595L191.762 68.8296ZM188.914 70.18C187.806 70.486 186.552 70.6563 185.131 70.6563V80.6563C187.355 80.6563 189.511 80.389 191.574 79.82L188.914 70.18ZM191.693 71.1406C193.545 71.1406 195.331 70.7482 197.017 70.0175L193.041 60.8419C192.54 61.0591 192.103 61.1406 191.693 61.1406V71.1406ZM197.017 70.0175C198.787 69.2506 200.331 68.1273 201.604 66.6769L194.088 60.081C193.793 60.417 193.459 60.6609 193.041 60.8419L197.017 70.0175ZM201.604 66.6769C203.051 65.0281 203.917 63.0716 204.278 60.9698L194.421 59.2802C194.344 59.7304 194.208 59.9433 194.088 60.081L201.604 66.6769ZM204.29 60.8969L204.837 57.3969L194.956 55.8531L194.41 59.3531L204.29 60.8969ZM198.003 51.9973C197.782 52.0878 197.496 52.1891 197.136 52.2959L199.977 61.8838C200.601 61.6989 201.209 61.4903 201.79 61.2527L198.003 51.9973ZM197.257 52.2618C196.829 52.3769 196.37 52.4938 195.88 52.6122L198.226 62.3331C198.792 62.1963 199.336 62.058 199.857 61.9179L197.257 52.2618ZM195.84 52.6219C195.437 52.7226 194.988 52.8204 194.491 52.9138L196.334 62.7425C197.002 62.6171 197.647 62.4779 198.265 62.3234L195.84 52.6219ZM194.462 52.9192C193.917 53.0248 193.352 53.1307 192.768 53.2369L194.557 63.0756C195.176 62.9631 195.777 62.8502 196.362 62.737L194.462 52.9192ZM192.913 53.2127C191.338 53.4513 189.777 53.878 188.351 54.6064L192.903 63.5108C193.118 63.4006 193.58 63.2258 194.411 63.0998L192.913 53.2127ZM188.431 54.5667C187.053 55.2404 185.745 56.1997 184.727 57.5432L192.698 63.5818C192.649 63.6468 192.615 63.6729 192.622 63.6669C192.632 63.6592 192.691 63.6152 192.823 63.5505L188.431 54.5667ZM184.773 57.4843C183.789 58.744 183.158 60.2044 182.921 61.7896L192.81 63.2729C192.803 63.32 192.786 63.3901 192.752 63.4695C192.717 63.5487 192.679 63.6071 192.653 63.6407L184.773 57.4843ZM182.915 61.8241C182.58 64.1744 183.081 66.8714 185.271 68.8887L192.046 61.5332C192.356 61.8191 192.608 62.2141 192.735 62.6437C192.85 63.0338 192.81 63.2708 192.815 63.2384L182.915 61.8241ZM185.373 68.9798C187.296 70.6565 189.644 71.1406 191.693 71.1406V61.1406C191.419 61.1406 191.348 61.107 191.415 61.1274C191.452 61.1388 191.525 61.1651 191.622 61.2176C191.721 61.2707 191.832 61.3445 191.944 61.4421L185.373 68.9798ZM54.626 130.484L49.6402 130.861C49.837 133.469 52.0105 135.484 54.626 135.484V130.484ZM54.0244 127.941L49.4462 129.951C49.4523 129.965 49.4585 129.979 49.4648 129.993L54.0244 127.941ZM52.6299 126.055L49.3293 129.811C49.351 129.83 49.3729 129.849 49.395 129.867L52.6299 126.055ZM50.3877 124.879L48.8963 129.651C48.9354 129.664 48.9747 129.675 49.0141 129.687L50.3877 124.879ZM40.3252 126.301L42.8422 130.621L42.8422 130.621L40.3252 126.301ZM35.0479 131.578L30.7965 128.946C30.7915 128.955 30.7864 128.963 30.7814 128.971L35.0479 131.578ZM32.1494 139.891L37.0814 140.713C37.0824 140.707 37.0834 140.701 37.0843 140.695L32.1494 139.891ZM32.0127 148.313L27.1054 149.271L27.1054 149.271L32.0127 148.313ZM34.9658 153.672L31.7971 157.54C31.8047 157.546 31.8122 157.552 31.8198 157.558L34.9658 153.672ZM51.29 151.648L47.4304 148.47L47.4304 148.47L51.29 151.648ZM53.2041 147.273L53.7221 142.3C51.0668 142.024 48.6626 143.882 48.261 146.521L53.2041 147.273ZM55.8291 147.547V152.547C58.4897 152.547 60.6844 150.463 60.8224 147.806C60.9604 145.149 58.9934 142.849 56.3471 142.574L55.8291 147.547ZM43.0322 147.547L38.0963 146.749C37.8625 148.196 38.2751 149.672 39.2251 150.788C40.1751 151.904 41.5668 152.547 43.0322 152.547V147.547ZM44.7822 136.719V131.719C42.3287 131.719 40.2377 133.499 39.8463 135.921L44.7822 136.719ZM69.6104 136.719L74.546 137.518C74.7804 136.071 74.368 134.594 73.4181 133.478C72.4681 132.362 71.0761 131.719 69.6104 131.719V136.719ZM68.3525 144.484L73.2864 145.295L73.2882 145.284L68.3525 144.484ZM62.9385 157.582L58.965 154.547L58.9627 154.55L62.9385 157.582ZM52.6572 165.895L54.7717 170.425C54.7772 170.423 54.7827 170.42 54.7881 170.418L52.6572 165.895ZM25.3955 165.293L22.7623 169.543L22.7623 169.543L25.3955 165.293ZM17.3838 155.395L12.6948 157.13C12.697 157.136 12.6991 157.142 12.7013 157.148L17.3838 155.395ZM16.4541 140.109L11.5211 139.294L11.5197 139.302L16.4541 140.109ZM20.6104 127.805L16.2596 125.341C16.2564 125.346 16.2533 125.352 16.2501 125.358L20.6104 127.805ZM28.0205 118.754L31.2449 122.575C31.2495 122.571 31.2541 122.568 31.2587 122.564L28.0205 118.754ZM37.6729 113.148L39.3561 117.857C39.3633 117.854 39.3705 117.851 39.3777 117.849L37.6729 113.148ZM57.6064 112.656L55.949 117.374C55.9585 117.377 55.968 117.38 55.9775 117.383L57.6064 112.656ZM64.5244 116.648L61.1699 120.356C61.1764 120.362 61.1829 120.368 61.1894 120.374L64.5244 116.648ZM68.8174 122.746L64.18 124.615C64.1841 124.626 64.1883 124.636 64.1925 124.646L68.8174 122.746ZM69.9932 130.484V135.484C72.6288 135.484 74.8119 133.438 74.9827 130.808L69.9932 130.484ZM59.6118 130.108C59.5042 128.682 59.1949 127.247 58.584 125.89L49.4648 129.993C49.5102 130.094 49.602 130.355 49.6402 130.861L59.6118 130.108ZM58.6026 125.931C57.9803 124.514 57.0655 123.261 55.8648 122.242L49.395 129.867C49.4049 129.876 49.4072 129.879 49.4088 129.881C49.4108 129.884 49.425 129.903 49.4462 129.951L58.6026 125.931ZM55.9305 122.299C54.6901 121.209 53.2533 120.498 51.7613 120.071L49.0141 129.687C49.1649 129.73 49.2533 129.77 49.2961 129.792C49.337 129.814 49.3424 129.822 49.3293 129.811L55.9305 122.299ZM51.8791 120.107C50.404 119.646 48.8488 119.469 47.2979 119.469V129.469C48.1166 129.469 48.6214 129.565 48.8963 129.651L51.8791 120.107ZM47.2979 119.469C43.9092 119.469 40.7089 120.291 37.8082 121.981L42.8422 130.621C44.1342 129.868 45.5824 129.469 47.2979 129.469V119.469ZM37.8082 121.981C34.9268 123.659 32.5998 126.033 30.7965 128.946L39.2992 134.21C40.3397 132.529 41.5309 131.385 42.8422 130.621L37.8082 121.981ZM30.7814 128.971C28.9747 131.927 27.8248 135.341 27.2145 139.087L37.0843 140.695C37.5313 137.951 38.3138 135.823 39.3143 134.185L30.7814 128.971ZM27.2174 139.069C26.6085 142.722 26.4992 146.167 27.1054 149.271L36.92 147.354C36.6148 145.791 36.5966 143.622 37.0814 140.713L27.2174 139.069ZM27.1054 149.271C27.7344 152.492 29.2009 155.413 31.7971 157.54L38.1345 149.804C37.7047 149.452 37.2024 148.8 36.92 147.354L27.1054 149.271ZM31.8198 157.558C34.4928 159.722 37.7929 160.531 41.1729 160.531V150.531C39.3393 150.531 38.5013 150.101 38.1118 149.786L31.8198 157.558ZM41.1729 160.531C43.9703 160.531 46.6419 160.129 49.0642 159.165L45.3675 149.874C44.3991 150.259 43.0421 150.531 41.1729 150.531V160.531ZM49.0642 159.165C51.4347 158.222 53.5234 156.802 55.1497 154.827L47.4304 148.47C47.015 148.974 46.3875 149.468 45.3675 149.874L49.0642 159.165ZM55.1497 154.827C56.7767 152.851 57.7643 150.542 58.1472 148.026L48.261 146.521C48.1335 147.359 47.8451 147.966 47.4304 148.47L55.1497 154.827ZM52.6861 152.247L55.3111 152.52L56.3471 142.574L53.7221 142.3L52.6861 152.247ZM55.8291 142.547H43.0322V152.547H55.8291V142.547ZM47.9682 148.345L49.7182 137.516L39.8463 135.921L38.0963 146.749L47.9682 148.345ZM44.7822 141.719H69.6104V131.719H44.7822V141.719ZM64.6747 135.919L63.4169 143.685L73.2882 145.284L74.546 137.518L64.6747 135.919ZM63.4187 143.674C62.6951 148.078 61.1752 151.653 58.965 154.547L66.912 160.617C70.2434 156.255 72.3329 151.099 73.2864 145.295L63.4187 143.674ZM58.9627 154.55C56.6959 157.522 53.9013 159.781 50.5263 161.371L54.7881 170.418C59.6163 168.143 63.6758 164.861 66.9143 160.614L58.9627 154.55ZM50.5428 161.364C47.1572 162.944 43.3843 163.766 39.1494 163.766V173.766C44.7218 173.766 49.9542 172.674 54.7717 170.425L50.5428 161.364ZM39.1494 163.766C34.4286 163.766 30.8073 162.764 28.0287 161.043L22.7623 169.543C27.4576 172.452 33.0057 173.766 39.1494 173.766V163.766ZM28.0287 161.043C25.2725 159.335 23.2994 156.934 22.0663 153.641L12.7013 157.148C14.6766 162.423 18.0445 166.621 22.7623 169.543L28.0287 161.043ZM22.0728 153.659C20.8667 150.401 20.5201 146.226 21.3885 140.917L11.5197 139.302C10.4559 145.806 10.729 151.821 12.6948 157.13L22.0728 153.659ZM21.3871 140.925C22.0716 136.786 23.2877 133.25 24.9706 130.252L16.2501 125.358C13.9226 129.505 12.3679 134.173 11.5211 139.294L21.3871 140.925ZM24.9611 130.269C26.7148 127.172 28.8145 124.626 31.2449 122.575L24.7962 114.932C21.3932 117.804 18.5528 121.292 16.2596 125.341L24.9611 130.269ZM31.2587 122.564C33.727 120.466 36.4202 118.906 39.3561 117.857L35.9896 108.44C31.8891 109.906 28.1473 112.084 24.7823 114.944L31.2587 122.564ZM39.3777 117.849C42.3448 116.773 45.4134 116.234 48.6104 116.234V106.234C44.2605 106.234 40.0374 106.972 35.9681 108.448L39.3777 117.849ZM48.6104 116.234C51.4307 116.234 53.8586 116.639 55.949 117.374L59.2639 107.939C55.9585 106.778 52.389 106.234 48.6104 106.234V116.234ZM55.9775 117.383C58.1049 118.117 59.8067 119.123 61.1699 120.356L67.879 112.941C65.414 110.711 62.5038 109.055 59.2354 107.929L55.9775 117.383ZM61.1894 120.374C62.5408 121.584 63.5223 122.984 64.18 124.615L73.4548 120.877C72.2167 117.805 70.3362 115.14 67.8594 112.923L61.1894 120.374ZM64.1925 124.646C64.8398 126.222 65.142 128.031 65.0037 130.16L74.9827 130.808C75.2089 127.324 74.7273 123.974 73.4423 120.846L64.1925 124.646ZM69.9932 125.484H54.626V135.484H69.9932V125.484ZM76.4531 167.344L74.322 171.867C74.3394 171.875 74.3569 171.883 74.3743 171.891L76.4531 167.344ZM72.2969 163.297L67.7718 165.424C67.7803 165.442 67.789 165.46 67.7978 165.478L72.2969 163.297ZM71.7227 156.406L76.6511 157.249C76.6523 157.242 76.6535 157.235 76.6546 157.228L71.7227 156.406ZM73.8828 150.527L78.0718 153.257L78.0718 153.257L73.8828 150.527ZM77.8203 146.535L80.5826 150.703L80.5826 150.703L77.8203 146.535ZM83.0977 144.156L84.4475 148.971C84.4574 148.968 84.4673 148.965 84.4771 148.962L83.0977 144.156ZM89.332 143.062L89.706 148.049L89.7155 148.048L89.332 143.062ZM95.1016 142.379L94.1911 137.462L94.1911 137.462L95.1016 142.379ZM98.4102 141.258L95.6852 137.066L95.6852 137.066L98.4102 141.258ZM99.7227 139.344L104.642 140.238C104.696 139.943 104.723 139.644 104.723 139.344H99.7227ZM99.7227 139.234L94.778 138.493C94.7411 138.738 94.7227 138.986 94.7227 139.234H99.7227ZM98.8477 136.719L95.7242 140.623C95.7398 140.636 95.7555 140.648 95.7713 140.66L98.8477 136.719ZM92.0938 136.773L89.5324 132.479C89.5212 132.486 89.51 132.493 89.4989 132.5L92.0938 136.773ZM89.9883 139.672V144.672C92.2105 144.672 94.1661 143.205 94.7883 141.072L89.9883 139.672ZM76.0977 139.672L71.2234 138.558C70.8842 140.041 71.2393 141.599 72.188 142.789C73.1367 143.979 74.5758 144.672 76.0977 144.672V139.672ZM79.6797 132.617L75.8518 129.4L75.8492 129.404L79.6797 132.617ZM86.9258 127.422L88.9021 132.015C88.9065 132.013 88.9109 132.011 88.9154 132.009L86.9258 127.422ZM105.629 126.52L104.129 131.289C104.14 131.293 104.152 131.296 104.164 131.3L105.629 126.52ZM111.234 129.445L107.992 133.252C108.009 133.266 108.026 133.28 108.043 133.294L111.234 129.445ZM114.379 133.82L109.673 135.508C109.68 135.529 109.687 135.55 109.695 135.57L114.379 133.82ZM114.816 139.234L109.886 138.405L109.885 138.409L114.816 139.234ZM110.004 168V173C112.447 173 114.532 171.235 114.935 168.825L110.004 168ZM95.8945 168L90.9626 167.178C90.7209 168.628 91.1294 170.11 92.0794 171.232C93.0294 172.353 94.4248 173 95.8945 173V168ZM96.8789 162.094L101.811 162.916C102.053 161.466 101.644 159.983 100.694 158.862C99.744 157.74 98.3487 157.094 96.8789 157.094V162.094ZM96.5508 162.094V157.094C94.9165 157.094 93.3853 157.892 92.4501 159.233L96.5508 162.094ZM92.8594 165.895L89.9738 161.811C89.9652 161.817 89.9566 161.823 89.948 161.83L92.8594 165.895ZM88.4297 168L87.1141 163.176C87.1094 163.177 87.1047 163.179 87.1 163.18L88.4297 168ZM93.2148 158.43L95.2029 163.017L95.2029 163.017L93.2148 158.43ZM96.0313 156.379L99.7894 159.677L99.7894 159.677L96.0313 156.379ZM97.5352 153.125L102.463 153.97C102.467 153.946 102.471 153.921 102.475 153.897L97.5352 153.125ZM98.082 149.625L103.022 150.397C103.301 148.615 102.597 146.82 101.182 145.702C99.7666 144.584 97.8585 144.314 96.1889 144.997L98.082 149.625ZM96.7422 150.09L98.0421 154.918C98.0824 154.907 98.1226 154.896 98.1626 154.884L96.7422 150.09ZM95.2383 150.473L94.0651 145.612C94.0519 145.615 94.0387 145.619 94.0256 145.622L95.2383 150.473ZM93.5977 150.828L92.6762 145.914C92.6667 145.916 92.6571 145.917 92.6475 145.919L93.5977 150.828ZM91.8477 151.156L92.5967 156.1C92.6453 156.092 92.6937 156.084 92.7421 156.076L91.8477 151.156ZM88.8125 152.059L91.0086 156.551C91.0352 156.538 91.0617 156.524 91.0881 156.511L88.8125 152.059ZM86.8984 153.562L90.8386 156.641C90.8538 156.621 90.8689 156.602 90.8839 156.582L86.8984 153.562ZM86.0508 155.531L81.1061 154.79C81.1044 154.801 81.1027 154.813 81.101 154.824L86.0508 155.531ZM86.8437 158.211L83.4564 161.889C83.4899 161.92 83.5238 161.95 83.5581 161.98L86.8437 158.211ZM83.3164 163.656C81.1887 163.656 79.645 163.305 78.5319 162.796L74.3743 171.891C77.0894 173.132 80.1212 173.656 83.3164 173.656V163.656ZM78.5842 162.821C77.6719 162.391 77.1487 161.843 76.7959 161.116L67.7978 165.478C69.195 168.36 71.4426 170.51 74.322 171.867L78.5842 162.821ZM76.822 161.17C76.5415 160.573 76.2834 159.399 76.6511 157.249L66.7942 155.563C66.214 158.956 66.3388 162.375 67.7718 165.424L76.822 161.17ZM76.6546 157.228C76.9466 155.477 77.4593 154.197 78.0718 153.257L69.6938 147.797C68.1917 150.102 67.2644 152.742 66.7907 155.584L76.6546 157.228ZM78.0718 153.257C78.7679 152.189 79.6006 151.354 80.5826 150.703L75.058 142.367C72.9046 143.795 71.1123 145.621 69.6938 147.797L78.0718 153.257ZM80.5826 150.703C81.6839 149.973 82.96 149.388 84.4475 148.971L81.7478 139.342C79.3343 140.019 77.0922 141.019 75.058 142.367L80.5826 150.703ZM84.4771 148.962C86.0955 148.498 87.835 148.189 89.706 148.048L88.9581 138.077C86.4541 138.264 84.0374 138.685 81.7182 139.35L84.4771 148.962ZM89.7155 148.048C92.1731 147.859 94.2912 147.614 96.012 147.295L94.1911 137.462C92.9588 137.691 91.2305 137.902 88.9485 138.077L89.7155 148.048ZM96.012 147.295C97.7336 146.977 99.5927 146.453 101.135 145.45L95.6852 137.066C95.765 137.014 95.7124 137.063 95.4315 137.158C95.1608 137.25 94.7575 137.358 94.1911 137.462L96.012 147.295ZM101.135 145.45C102.932 144.282 104.232 142.493 104.642 140.238L94.8033 138.449C94.8495 138.195 94.9605 137.889 95.1615 137.596C95.3582 137.309 95.5667 137.143 95.6852 137.066L101.135 145.45ZM104.723 139.344V139.234H94.7227V139.344H104.723ZM104.667 139.976C105.046 137.454 104.356 134.675 101.924 132.777L95.7713 140.66C95.4404 140.402 95.0965 139.98 94.9045 139.428C94.7267 138.917 94.7688 138.554 94.778 138.493L104.667 139.976ZM101.971 132.814C100.057 131.283 97.7808 130.844 95.7852 130.844V140.844C95.9294 140.844 96.0308 140.852 96.0947 140.86C96.1584 140.868 96.1778 140.875 96.1615 140.87C96.1445 140.865 96.0901 140.848 96.01 140.808C95.9288 140.767 95.8296 140.707 95.7242 140.623L101.971 132.814ZM95.7852 130.844C93.6211 130.844 91.4724 131.322 89.5324 132.479L94.6551 141.068C94.7932 140.985 95.1055 140.844 95.7852 140.844V130.844ZM89.4989 132.5C87.2547 133.862 85.8668 135.946 85.1883 138.272L94.7883 141.072C94.8152 140.98 94.8384 140.926 94.8498 140.901C94.861 140.878 94.8618 140.881 94.8471 140.901C94.8319 140.922 94.8075 140.951 94.7745 140.982C94.7414 141.012 94.7107 141.034 94.6886 141.047L89.4989 132.5ZM89.9883 134.672H76.0977V144.672H89.9883V134.672ZM80.9719 140.786C81.366 139.062 82.177 137.42 83.5101 135.831L75.8492 129.404C73.573 132.117 71.996 135.178 71.2234 138.558L80.9719 140.786ZM83.5076 135.834C84.7563 134.348 86.4987 133.049 88.9021 132.015L84.9495 122.829C81.3372 124.383 78.2489 126.548 75.8518 129.4L83.5076 135.834ZM88.9154 132.009C91.168 131.032 94.067 130.453 97.7539 130.453V120.453C93.0554 120.453 88.7357 121.187 84.9362 122.835L88.9154 132.009ZM97.7539 130.453C100.361 130.453 102.461 130.765 104.129 131.289L107.129 121.75C104.276 120.852 101.126 120.453 97.7539 120.453V130.453ZM104.164 131.3C105.911 131.835 107.136 132.522 107.992 133.252L114.477 125.639C112.38 123.853 109.868 122.589 107.094 121.739L104.164 131.3ZM108.043 133.294C108.912 134.015 109.4 134.749 109.673 135.508L119.085 132.132C118.155 129.537 116.546 127.355 114.426 125.597L108.043 133.294ZM109.695 135.57C109.973 136.313 110.085 137.217 109.886 138.405L119.747 140.064C120.204 137.35 120.025 134.646 119.063 132.07L109.695 135.57ZM109.885 138.409L105.072 167.175L114.935 168.825L119.748 140.059L109.885 138.409ZM110.004 163H95.8945V173H110.004V163ZM100.827 168.822L101.811 162.916L91.9469 161.272L90.9626 167.178L100.827 168.822ZM96.8789 157.094H96.5508V167.094H96.8789V157.094ZM92.4501 159.233C91.6413 160.392 90.8064 161.223 89.9738 161.811L95.7449 169.978C97.6468 168.634 99.2728 166.931 100.651 164.955L92.4501 159.233ZM89.948 161.83C89.0827 162.449 88.1467 162.895 87.1141 163.176L89.7453 172.824C91.921 172.23 93.9381 171.272 95.7708 169.959L89.948 161.83ZM87.1 163.18C85.9911 163.486 84.7379 163.656 83.3164 163.656V173.656C85.5407 173.656 87.6964 173.389 89.7593 172.82L87.1 163.18ZM89.8789 164.141C91.7301 164.141 93.5166 163.748 95.2029 163.017L91.2268 153.842C90.7256 154.059 90.2881 154.141 89.8789 154.141V164.141ZM95.2029 163.017C96.9726 162.251 98.5165 161.127 99.7894 159.677L92.2731 153.081C91.9783 153.417 91.6446 153.661 91.2268 153.842L95.2029 163.017ZM99.7894 159.677C101.236 158.028 102.103 156.072 102.463 153.97L92.607 152.28C92.5299 152.73 92.3939 152.943 92.2731 153.081L99.7894 159.677ZM102.475 153.897L103.022 150.397L93.142 148.853L92.5951 152.353L102.475 153.897ZM96.1889 144.997C95.9676 145.088 95.682 145.189 95.3217 145.296L98.1626 154.884C98.7868 154.699 99.3944 154.49 99.9752 154.253L96.1889 144.997ZM95.4423 145.262C95.0146 145.377 94.5558 145.494 94.0651 145.612L96.4115 155.333C96.978 155.196 97.5218 155.058 98.0421 154.918L95.4423 145.262ZM94.0256 145.622C93.6229 145.723 93.174 145.82 92.6762 145.914L94.5191 155.742C95.188 155.617 95.8329 155.478 96.451 155.323L94.0256 145.622ZM92.6475 145.919C92.1021 146.025 91.5373 146.131 90.9532 146.237L92.7421 156.076C93.3611 155.963 93.963 155.85 94.5478 155.737L92.6475 145.919ZM91.0986 146.213C89.5239 146.451 87.9621 146.878 86.5369 147.606L91.0881 156.511C91.3036 156.401 91.7652 156.226 92.5967 156.1L91.0986 146.213ZM86.6164 147.567C85.2385 148.24 83.9308 149.2 82.913 150.543L90.8839 156.582C90.8347 156.647 90.8003 156.673 90.8079 156.667C90.8178 156.659 90.8762 156.615 91.0086 156.551L86.6164 147.567ZM82.9583 150.484C81.9741 151.744 81.3439 153.204 81.1061 154.79L90.9955 156.273C90.9884 156.32 90.9713 156.39 90.9371 156.469C90.903 156.549 90.8648 156.607 90.8386 156.641L82.9583 150.484ZM81.101 154.824C80.7653 157.174 81.2662 159.871 83.4564 161.889L90.2311 154.533C90.5416 154.819 90.7933 155.214 90.9205 155.644C91.0359 156.034 90.9959 156.271 91.0005 156.238L81.101 154.824ZM83.5581 161.98C85.4813 163.656 87.83 164.141 89.8789 164.141V154.141C89.6049 154.141 89.5335 154.107 89.6001 154.127C89.6372 154.139 89.7109 154.165 89.808 154.218C89.9065 154.271 90.0175 154.344 90.1294 154.442L83.5581 161.98ZM117.325 168L112.393 167.178C112.152 168.628 112.56 170.11 113.51 171.232C114.46 172.353 115.855 173 117.325 173V168ZM124.325 126V121C121.881 121 119.795 122.767 119.393 125.178L124.325 126ZM138.653 126L143.587 126.811C143.825 125.363 143.415 123.883 142.465 122.764C141.515 121.645 140.121 121 138.653 121V126ZM137.341 133.984L132.407 133.173C132.169 134.622 132.579 136.102 133.529 137.22C134.479 138.339 135.873 138.984 137.341 138.984V133.984ZM137.778 133.984V138.984C139.682 138.984 141.421 137.903 142.263 136.195L137.778 133.984ZM143.274 127.75L140.561 123.55L140.561 123.55L143.274 127.75ZM158.45 127.805L155.246 131.643C155.253 131.649 155.26 131.655 155.268 131.661L158.45 127.805ZM161.294 133.984L156.294 134.02C156.314 136.767 158.546 138.984 161.294 138.984V133.984ZM161.731 133.984V138.984C163.715 138.984 165.51 137.812 166.308 135.997L161.731 133.984ZM167.282 127.805L169.864 132.087C169.871 132.082 169.878 132.078 169.886 132.073L167.282 127.805ZM184.946 129.336L181.047 132.466C181.052 132.472 181.056 132.477 181.061 132.483L184.946 129.336ZM186.997 139.672L182.067 138.836C182.066 138.842 182.066 138.847 182.065 138.853L186.997 139.672ZM182.294 168V173C184.739 173 186.826 171.231 187.226 168.819L182.294 168ZM167.2 168L162.271 167.164C162.024 168.615 162.43 170.102 163.38 171.226C164.33 172.351 165.728 173 167.2 173V168ZM171.356 143.5L176.286 144.336C176.294 144.286 176.302 144.237 176.309 144.187L171.356 143.5ZM170.591 139.18L166.541 142.112C166.549 142.123 166.557 142.135 166.566 142.146L170.591 139.18ZM163.153 139.18L166.658 142.746L166.659 142.745L163.153 139.18ZM161.185 143.5L166.114 144.336C166.123 144.286 166.13 144.237 166.137 144.187L161.185 143.5ZM157.028 168V173C159.467 173 161.55 171.241 161.958 168.836L157.028 168ZM142.591 168L137.661 167.164C137.415 168.615 137.821 170.102 138.771 171.226C139.721 172.351 141.119 173 142.591 173V168ZM146.747 143.5L151.677 144.336C151.685 144.286 151.693 144.237 151.7 144.187L146.747 143.5ZM145.981 139.18L141.932 142.112C141.94 142.123 141.948 142.135 141.956 142.146L145.981 139.18ZM139.692 138.305L137.232 133.952C137.218 133.96 137.205 133.967 137.191 133.975L139.692 138.305ZM137.642 140.355L133.377 137.745C133.372 137.753 133.367 137.761 133.362 137.77L137.642 140.355ZM136.575 143.5L141.505 144.336C141.51 144.304 141.516 144.271 141.52 144.238L136.575 143.5ZM132.419 168V173C134.858 173 136.941 171.241 137.349 168.836L132.419 168ZM122.257 168.822L129.257 126.822L119.393 125.178L112.393 167.178L122.257 168.822ZM124.325 131H138.653V121H124.325V131ZM133.72 125.189L132.407 133.173L142.275 134.795L143.587 126.811L133.72 125.189ZM137.341 138.984H137.778V128.984H137.341V138.984ZM142.263 136.195C143.173 134.35 144.407 132.971 145.988 131.95L140.561 123.55C137.403 125.591 134.972 128.369 133.294 131.773L142.263 136.195ZM145.988 131.95C147.516 130.963 149.218 130.453 151.231 130.453V120.453C147.375 120.453 143.773 121.475 140.561 123.55L145.988 131.95ZM151.231 130.453C153.239 130.453 154.438 130.969 155.246 131.643L161.655 123.967C158.707 121.505 155.094 120.453 151.231 120.453V130.453ZM155.268 131.661C155.933 132.21 156.286 132.835 156.294 134.02L166.294 133.949C166.266 129.993 164.723 126.498 161.633 123.948L155.268 131.661ZM161.294 138.984H161.731V128.984H161.294V138.984ZM166.308 135.997C166.994 134.437 168.112 133.142 169.864 132.087L164.701 123.523C161.311 125.566 158.729 128.391 157.154 131.972L166.308 135.997ZM169.886 132.073C171.639 131.004 173.584 130.453 175.841 130.453V120.453C171.827 120.453 168.067 121.47 164.679 123.536L169.886 132.073ZM175.841 130.453C178.658 130.453 180.113 131.302 181.047 132.466L188.845 126.206C185.623 122.193 181.008 120.453 175.841 120.453V130.453ZM181.061 132.483C181.993 133.634 182.636 135.484 182.067 138.836L191.927 140.507C192.817 135.255 192.092 130.215 188.832 126.189L181.061 132.483ZM182.065 138.853L177.361 167.181L187.226 168.819L191.93 140.491L182.065 138.853ZM182.294 163H167.2V173H182.294V163ZM172.13 168.836L176.286 144.336L166.427 142.664L162.271 167.164L172.13 168.836ZM176.309 144.187C176.665 141.622 176.44 138.689 174.616 136.214L166.566 142.146C166.434 141.968 166.422 141.848 166.433 141.912C166.449 141.999 166.478 142.278 166.404 142.813L176.309 144.187ZM174.641 136.247C172.739 133.622 169.897 132.594 167.091 132.594V142.594C167.319 142.594 167.271 142.632 167.078 142.544C166.982 142.501 166.874 142.437 166.769 142.351C166.665 142.265 166.59 142.18 166.541 142.112L174.641 136.247ZM167.091 132.594C164.27 132.594 161.687 133.61 159.648 135.614L166.659 142.745C166.758 142.648 166.807 142.63 166.812 142.628C166.821 142.625 166.895 142.594 167.091 142.594V132.594ZM159.649 135.614C157.622 137.605 156.6 140.161 156.232 142.813L166.137 144.187C166.28 143.156 166.57 142.833 166.658 142.746L159.649 135.614ZM156.255 142.664L152.099 167.164L161.958 168.836L166.114 144.336L156.255 142.664ZM157.028 163H142.591V173H157.028V163ZM147.52 168.836L151.677 144.336L141.818 142.664L137.661 167.164L147.52 168.836ZM151.7 144.187C152.055 141.622 151.83 138.689 150.007 136.214L141.956 142.146C141.825 141.968 141.812 141.848 141.824 141.912C141.839 141.999 141.869 142.278 141.794 142.813L151.7 144.187ZM150.031 136.247C148.13 133.622 145.288 132.594 142.481 132.594V142.594C142.709 142.594 142.662 142.632 142.469 142.544C142.372 142.501 142.264 142.437 142.16 142.351C142.056 142.265 141.981 142.18 141.932 142.112L150.031 136.247ZM142.481 132.594C140.652 132.594 138.866 133.028 137.232 133.952L142.153 142.657C142.195 142.633 142.269 142.594 142.481 142.594V132.594ZM137.191 133.975C135.575 134.909 134.313 136.217 133.377 137.745L141.906 142.966C142.064 142.707 142.169 142.648 142.194 142.634L137.191 133.975ZM133.362 137.77C132.428 139.315 131.89 141.02 131.63 142.762L141.52 144.238C141.625 143.538 141.798 143.146 141.921 142.941L133.362 137.77ZM131.646 142.664L127.489 167.164L137.349 168.836L141.505 144.336L131.646 142.664ZM132.419 163H117.325V173H132.419V163ZM189.629 168L184.697 167.178C184.455 168.628 184.864 170.11 185.814 171.232C186.764 172.353 188.159 173 189.629 173V168ZM196.629 126V121C194.185 121 192.099 122.767 191.697 125.178L196.629 126ZM211.723 126L216.655 126.822C216.896 125.372 216.488 123.89 215.538 122.768C214.588 121.647 213.192 121 211.723 121V126ZM204.723 168V173C207.167 173 209.253 171.233 209.655 168.822L204.723 168ZM199.883 119.602L196.203 122.987C196.211 122.995 196.218 123.003 196.226 123.011L199.883 119.602ZM198.488 114.734L203.414 115.595C203.415 115.59 203.415 115.585 203.416 115.579L198.488 114.734ZM201.496 109.867L204.604 113.784C204.613 113.777 204.621 113.77 204.63 113.763L201.496 109.867ZM211.996 109.867L208.29 113.223C208.297 113.231 208.305 113.24 208.312 113.248L211.996 109.867ZM213.363 114.734L208.428 113.935C208.426 113.946 208.424 113.956 208.423 113.967L213.363 114.734ZM210.41 119.602L213.565 123.481L213.569 123.477L210.41 119.602ZM194.561 168.822L201.561 126.822L191.697 125.178L184.697 167.178L194.561 168.822ZM196.629 131H211.723V121H196.629V131ZM206.791 125.178L199.791 167.178L209.655 168.822L216.655 126.822L206.791 125.178ZM204.723 163H189.629V173H204.723V163ZM204.832 116.625C204.013 116.625 203.745 116.412 203.54 116.192L196.226 123.011C198.536 125.489 201.568 126.625 204.832 126.625V116.625ZM203.562 116.216C203.479 116.125 203.438 116.063 203.42 116.032C203.404 116.003 203.399 115.988 203.397 115.982C203.396 115.976 203.389 115.952 203.387 115.9C203.385 115.845 203.387 115.746 203.414 115.595L193.563 113.874C192.975 117.237 193.861 120.441 196.203 122.987L203.562 116.216ZM203.416 115.579C203.515 115.006 203.784 114.434 204.604 113.784L198.388 105.95C195.854 107.962 194.118 110.635 193.56 113.89L203.416 115.579ZM204.63 113.763C205.471 113.087 206.237 112.844 207.074 112.844V102.844C203.828 102.844 200.876 103.949 198.362 105.971L204.63 113.763ZM207.074 112.844C207.928 112.844 208.146 113.065 208.29 113.223L215.703 106.511C213.403 103.972 210.34 102.844 207.074 102.844V112.844ZM208.312 113.248C208.379 113.32 208.409 113.368 208.421 113.389C208.432 113.409 208.437 113.421 208.44 113.434C208.444 113.448 208.484 113.588 208.428 113.935L218.299 115.533C218.833 112.236 218.021 109.037 215.68 106.486L208.312 113.248ZM208.423 113.967C208.347 114.454 208.113 115.023 207.251 115.726L213.569 123.477C216.062 121.445 217.796 118.77 218.304 115.502L208.423 113.967ZM207.256 115.722C206.452 116.376 205.696 116.625 204.832 116.625V126.625C208.087 126.625 211.051 125.525 213.565 123.481L207.256 115.722Z" fill="white" mask="url(#path-1-outside-1_2_2)"/>
</g>
<defs>
<filter id="filter0_d_2_2" x="5.40723" y="19" width="225.716" height="163.766" filterUnits="userSpaceOnUse" color-interpolation-filters="sRGB">
<feFlood flood-opacity="0" result="BackgroundImageFix"/>
<feColorMatrix in="SourceAlpha" type="matrix" values="0 0 0 0 0 0 0 0 0 0 0 0 0 0 0 0 0 0 127 0" result="hardAlpha"/>
<feOffset dx="10" dy="10"/>
<feGaussianBlur stdDeviation="2"/>
<feComposite in2="hardAlpha" operator="out"/>
<feColorMatrix type="matrix" values="0 0 0 0 0 0 0 0 0 0 0 0 0 0 0 0 0 0 0.25 0"/>
<feBlend mode="normal" in2="BackgroundImageFix" result="effect1_dropShadow_2_2"/>
<feBlend mode="normal" in="SourceGraphic" in2="effect1_dropShadow_2_2" result="shape"/>
</filter>
</defs>
</svg>
